<?xml version="1.0" encoding="iso-8859-1"?>
<svg
	version="1.1"
	id="Layer_1"
	xmlns="http://www.w3.org/2000/svg"
	xmlns:xlink="http://www.w3.org/1999/xlink"
	x="200px"
	y="200px"
	viewBox="0 0 100 100"
	style="enable-background:new 0 0 100 100;"
	xml:space="preserve"
>
	<path
		style="fill:none;stroke:#000000;stroke-width:2;stroke-linecap:round;stroke-linejoin:round;stroke-miterlimit:10;"
		d="M78,43.973c-14-5-25-13-28-23c-3,10-14,18-28,23c-1,7.75,0.5,17.75,10,26c-8.5-12.5-5.83-18.952,2.25-23.75c8-4.75,15.75-9.25,15.75-9.25s7.75,4.5,15.75,9.25c8.08,4.798,10.75,11.25,2.25,23.75C77.5,61.723,79,51.723,78,43.973z"
	/>
	<path
		style="fill:none;stroke:#000000;stroke-linecap:round;stroke-linejoin:round;stroke-miterlimit:10;"
		d="M67.5,55.473c-6.5-2.5-15.5-7.25-17.5-14c-2,6.75-11,11.5-17.5,14c-0.75,3.5-0.5,10.5,5.5,17c-7.5-10.5-1.457-13.426,2-15.5c5-3,10-5.5,10-5.5s5,2.5,10,5.5c3.457,2.074,9.5,5,2,15.5C68,65.973,68.25,58.973,67.5,55.473z"
	/>
	<path
		style="fill:none;stroke:#000000;stroke-linecap:round;stroke-linejoin:round;stroke-miterlimit:10;"
		d="M61.305,64.517C58,62.723,51.5,59.723,50,55.473c-1.5,4.25-8,7.25-11.305,9.044c-0.485,2.261-0.445,6.706,3.805,10.956c-5.25-6.25-0.456-9.165,1.04-9.987c3.21-1.763,6.46-3.553,6.46-3.553s3.25,1.79,6.46,3.553c1.496,0.822,6.29,3.737,1.04,9.987C61.75,71.223,61.79,66.778,61.305,64.517z"
	/>
	<path
		style="fill:none;stroke:#000000;stroke-linecap:round;stroke-linejoin:round;stroke-miterlimit:10;"
		d="M2.5,55.473c1.75,0.5,10-0.5,16-5c0.25,2.5,1,5,1,5c-2,1.25-6,3-8,4c1,3.25,4.25,11.5,5.5,13.5s2.25,3.5,5,5c-3-0.25-7-1.5-7-1.5c-1.5-3-6.445-13.89-7.5-16C6.75,58.973,4.75,56.723,2.5,55.473z"
	/>
	<path
		style="fill:none;stroke:#000000;stroke-linecap:round;stroke-linejoin:round;stroke-miterlimit:10;"
		d="M15.5,61.473c1.5,0.25,4-0.5,5.25-1.5c0.5,1.25,1.25,2.5,1.25,2.5c-0.5,0.5-1.5,1.5-1.5,1.5c1,2,3.75,8.5,6,10c-2-0.25-4.25-1-4.25-1C21,70.223,18.25,62.723,15.5,61.473z"
	/>
	<path
		style="fill:none;stroke:#000000;stroke-linecap:round;stroke-linejoin:round;stroke-miterlimit:10;"
		d="M97.5,55.473c-1.75,0.5-10-0.5-16-5c-0.25,2.5-1,5-1,5c2,1.25,6,3,8,4c-1,3.25-4.25,11.5-5.5,13.5s-2.25,3.5-5,5c3-0.25,7-1.5,7-1.5c1.5-3,6.445-13.89,7.5-16C93.25,58.973,95.25,56.723,97.5,55.473z"
	/>
	<path
		style="fill:none;stroke:#000000;stroke-linecap:round;stroke-linejoin:round;stroke-miterlimit:10;"
		d="M84.5,61.473c-1.5,0.25-4-0.5-5.25-1.5c-0.5,1.25-1.25,2.5-1.25,2.5c0.5,0.5,1.5,1.5,1.5,1.5c-1,2-3.75,8.5-6,10c2-0.25,4.25-1,4.25-1C79,70.223,81.75,62.723,84.5,61.473z"
	/>
	<path
		style="fill:none;stroke:#000000;stroke-linecap:round;stroke-linejoin:round;stroke-miterlimit:10;"
		d="M54.522,33.723c7.362,7.44,16.795,11.495,20.978,12.75"
	/>
	<path
		style="fill:none;stroke:#000000;stroke-linecap:round;stroke-linejoin:round;stroke-miterlimit:10;"
		d="M50.5,28.973c0.62,0.867,1.273,1.701,1.954,2.5"
	/>
</svg>