<svg
  xmlns="http://www.w3.org/2000/svg"
  viewBox="0 0 100 100"
  width="512px"
  height="512px"
>
  <path
    d="M 49.978516 19.972656 A 1.0001 1.0001 0 0 0 49.042969 20.685547 C 46.194112 30.181736 35.502134 38.089082 21.664062 43.03125 A 1.0001 1.0001 0 0 0 21.007812 43.845703 C 19.9776 51.829859 21.581043 62.250376 31.34375 70.728516 A 1.0001 1.0001 0 0 0 32.826172 69.410156 C 28.648536 63.266573 27.341192 58.767835 27.894531 55.371094 C 28.447871 51.974353 30.847388 49.405248 34.759766 47.082031 C 42.499433 42.486604 49.529032 38.406382 50 38.132812 C 50.470968 38.406382 57.500567 42.486604 65.240234 47.082031 C 69.152612 49.405248 71.552129 51.974353 72.105469 55.371094 C 72.658808 58.767835 71.351464 63.266573 67.173828 69.410156 A 1.0001 1.0001 0 0 0 68.65625 70.728516 C 78.418957 62.250376 80.022401 51.829859 78.992188 43.845703 A 1.0001 1.0001 0 0 0 78.335938 43.03125 C 64.497866 38.089082 53.805888 30.181736 50.957031 20.685547 A 1.0001 1.0001 0 0 0 49.978516 19.972656 z M 50 23.617188 C 53.969345 32.804164 64.26401 39.961444 77.025391 44.636719 C 77.650114 50.15635 77.002302 56.692348 72.914062 62.916016 C 74.036498 59.985186 74.458068 57.369161 74.080078 55.048828 C 73.403418 50.895069 70.427388 47.838065 66.259766 45.363281 C 58.254385 40.610087 50.501953 36.107422 50.501953 36.107422 A 1.0001 1.0001 0 0 0 49.498047 36.107422 C 49.498047 36.107422 41.745615 40.610087 33.740234 45.363281 C 29.572612 47.838065 26.596582 50.895069 25.919922 55.048828 C 25.541932 57.369161 25.963501 59.985186 27.085938 62.916016 C 22.997699 56.692348 22.349886 50.15635 22.974609 44.636719 C 35.73599 39.961444 46.030655 32.804164 50 23.617188 z M 50.478516 28.466797 A 0.50005 0.50005 0 0 0 50.09375 29.263672 C 50.722125 30.142383 51.384154 30.987239 52.074219 31.796875 A 0.50005 0.50005 0 1 0 52.833984 31.148438 C 52.162049 30.360073 51.517875 29.536929 50.90625 28.681641 A 0.50005 0.50005 0 0 0 50.478516 28.466797 z M 54.519531 33.21875 A 0.50005 0.50005 0 0 0 54.166016 34.074219 C 61.614324 41.601442 71.086699 45.670439 75.355469 46.951172 A 0.50005 0.50005 0 1 0 75.644531 45.994141 C 71.547301 44.764874 62.152645 40.723871 54.876953 33.371094 A 0.50005 0.50005 0 0 0 54.519531 33.21875 z M 49.990234 40.972656 A 0.50005 0.50005 0 0 0 49.521484 41.330078 C 48.570445 44.539838 45.910069 47.350445 42.648438 49.658203 C 39.386806 51.965962 35.543451 53.766191 32.320312 55.005859 A 0.50005 0.50005 0 0 0 32.011719 55.369141 C 31.231903 59.008282 31.532409 66.119764 37.568359 72.720703 C 37.579299 72.736073 37.58275 72.748272 37.59375 72.763672 L 37.595703 72.761719 C 37.611263 72.778669 37.617173 72.79556 37.632812 72.8125 A 0.50005 0.50005 0 0 0 38.40625 72.181641 C 34.705935 67.0012 34.433198 63.863111 35.349609 61.763672 C 36.266021 59.664232 38.508049 58.452101 40.257812 57.402344 C 45.12543 54.481774 49.784325 52.151069 50 52.042969 C 50.215675 52.151069 54.874571 54.481774 59.742188 57.402344 C 61.491951 58.452101 63.733979 59.664232 64.650391 61.763672 C 65.566802 63.863111 65.294065 67.0012 61.59375 72.181641 A 0.50005 0.50005 0 0 0 62.367188 72.8125 C 62.382827 72.79556 62.388737 72.778669 62.404297 72.761719 L 62.40625 72.763672 C 62.41725 72.748272 62.420701 72.736073 62.431641 72.720703 C 68.467591 66.119764 68.768097 59.008282 67.988281 55.369141 A 0.50005 0.50005 0 0 0 67.679688 55.005859 C 64.456548 53.766191 60.613194 51.965962 57.351562 49.658203 C 54.089931 47.350445 51.429555 44.539838 50.478516 41.330078 A 0.50005 0.50005 0 0 0 49.990234 40.972656 z M 50 42.720703 C 51.268718 45.760364 53.775553 48.353466 56.773438 50.474609 C 60.044637 52.789137 63.813429 54.55663 67.033203 55.8125 C 67.446461 57.924708 67.318469 61.306701 65.914062 65.056641 C 66.102643 63.637755 66.011642 62.383288 65.566406 61.363281 C 64.472067 58.856221 61.965049 57.569165 60.257812 56.544922 C 55.236796 53.532312 50.222656 51.025391 50.222656 51.025391 A 0.50005 0.50005 0 0 0 49.777344 51.025391 C 49.777344 51.025391 44.763204 53.532312 39.742188 56.544922 C 38.034951 57.569165 35.527933 58.856221 34.433594 61.363281 C 33.988358 62.383288 33.897357 63.637755 34.085938 65.056641 C 32.681531 61.306701 32.553539 57.924708 32.966797 55.8125 C 36.186571 54.55663 39.955363 52.789137 43.226562 50.474609 C 46.224446 48.353466 48.731282 45.760364 50 42.720703 z M 18.486328 49.972656 A 0.50005 0.50005 0 0 0 18.199219 50.072266 C 15.272997 52.266932 11.768713 53.625565 8.7871094 54.363281 C 7.2963075 54.732139 5.9364889 54.945912 4.8535156 55.037109 C 3.7705424 55.128309 2.9321066 55.076578 2.6367188 54.992188 A 0.50005 0.50005 0 0 0 2.2578125 55.910156 C 4.3951067 57.097542 6.3723009 59.336399 7.0527344 60.697266 C 7.5661044 61.724006 9.0731396 64.988053 10.628906 68.349609 C 12.184673 71.711166 13.792796 75.177389 14.552734 76.697266 A 0.50005 0.50005 0 0 0 14.851562 76.951172 C 14.851562 76.951172 18.858184 78.212303 21.958984 78.470703 A 0.50005 0.50005 0 0 0 22.240234 77.533203 C 19.568518 76.075903 18.669858 74.700679 17.423828 72.707031 C 16.859371 71.8039 15.711137 69.215396 14.621094 66.505859 C 13.590655 63.944482 12.644016 61.353353 12.123047 59.71875 C 14.177484 58.714042 17.792849 57.12947 19.765625 55.896484 A 0.50005 0.50005 0 0 0 19.978516 55.330078 C 19.978516 55.330078 19.241479 52.858149 18.998047 50.423828 A 0.50005 0.50005 0 0 0 18.486328 49.972656 z M 81.470703 49.972656 A 0.50005 0.50005 0 0 0 81.001953 50.423828 C 80.758521 52.858149 80.021484 55.330078 80.021484 55.330078 A 0.50005 0.50005 0 0 0 80.234375 55.896484 C 82.207151 57.12947 85.822516 58.714042 87.876953 59.71875 C 87.355984 61.353353 86.409345 63.944482 85.378906 66.505859 C 84.288863 69.215396 83.140629 71.8039 82.576172 72.707031 C 81.330142 74.700679 80.431482 76.075903 77.759766 77.533203 A 0.50005 0.50005 0 0 0 78.041016 78.470703 C 81.141816 78.212303 85.148437 76.951172 85.148438 76.951172 A 0.50005 0.50005 0 0 0 85.447266 76.697266 C 86.207204 75.177389 87.815327 71.711166 89.371094 68.349609 C 90.926861 64.988053 92.433896 61.724006 92.947266 60.697266 C 93.627699 59.336399 95.604892 57.097542 97.742188 55.910156 A 0.50005 0.50005 0 0 0 97.363281 54.992188 C 97.067893 55.076588 96.229458 55.128308 95.146484 55.037109 C 94.063511 54.945909 92.703692 54.732139 91.212891 54.363281 C 88.231287 53.625565 84.727003 52.266932 81.800781 50.072266 A 0.50005 0.50005 0 0 0 81.521484 49.972656 A 0.50005 0.50005 0 0 0 81.470703 49.972656 z M 18.146484 51.248047 C 18.437013 53.189963 18.846767 54.887204 18.9375 55.197266 C 16.941423 56.393044 13.231419 58.048353 11.277344 59.025391 A 0.50005 0.50005 0 0 0 11.021484 59.619141 C 11.531287 61.276 12.59395 64.150943 13.691406 66.878906 C 14.788863 69.60687 15.890629 72.141413 16.576172 73.238281 C 17.491568 74.702916 18.556827 75.934878 20.041016 77.109375 C 17.735533 76.68846 15.605926 76.129414 15.355469 76.052734 C 14.593009 74.516419 13.055779 71.211088 11.537109 67.929688 C 9.9816267 64.568743 8.4888956 61.33326 7.9472656 60.25 C 7.2874563 58.930381 5.7513023 57.310466 3.9824219 56.003906 C 4.3268362 56.000006 4.5118075 56.068883 4.9355469 56.033203 C 6.0791361 55.936903 7.4849425 55.715126 9.0253906 55.333984 C 11.900113 54.622713 15.214843 53.286319 18.146484 51.248047 z M 81.853516 51.248047 C 84.785157 53.286319 88.099887 54.622713 90.974609 55.333984 C 92.515058 55.715126 93.920864 55.936901 95.064453 56.033203 C 95.488192 56.068883 95.673164 56.000036 96.017578 56.003906 C 94.248698 57.310466 92.712544 58.930381 92.052734 60.25 C 91.511104 61.33326 90.018374 64.568743 88.462891 67.929688 C 86.944221 71.211088 85.406991 74.516419 84.644531 76.052734 C 84.394074 76.129414 82.264467 76.68846 79.958984 77.109375 C 81.443173 75.934878 82.508432 74.702916 83.423828 73.238281 C 84.109371 72.141413 85.211137 69.60687 86.308594 66.878906 C 87.40605 64.150943 88.468713 61.276 88.978516 59.619141 A 0.50005 0.50005 0 0 0 88.722656 59.025391 C 86.768581 58.048353 83.058577 56.393044 81.0625 55.197266 C 81.15323 54.887204 81.562987 53.189963 81.853516 51.248047 z M 50.015625 54.972656 A 0.50005 0.50005 0 0 0 49.529297 55.306641 C 48.842447 57.252714 46.930647 59.022914 44.744141 60.501953 C 42.557634 61.980992 40.127616 63.171308 38.457031 64.078125 A 0.50005 0.50005 0 0 0 38.207031 64.412109 C 37.696498 66.792142 37.794038 71.385072 42.070312 75.728516 C 42.089793 75.751956 42.097427 75.771402 42.117188 75.794922 L 42.121094 75.792969 C 42.132044 75.803969 42.135484 75.815172 42.146484 75.826172 A 0.50005 0.50005 0 0 0 42.882812 75.152344 C 40.330646 72.114049 40.297373 70.083321 40.945312 68.650391 C 41.593252 67.217461 43.054314 66.323254 43.78125 65.923828 C 46.871338 64.226686 49.770055 62.630546 50 62.503906 C 50.229945 62.630546 53.128662 64.226686 56.21875 65.923828 C 56.945686 66.323254 58.406747 67.217461 59.054688 68.650391 C 59.702627 70.083321 59.669354 72.114049 57.117188 75.152344 A 0.50005 0.50005 0 0 0 57.853516 75.826172 C 57.864516 75.815172 57.867956 75.803969 57.878906 75.792969 L 57.882812 75.794922 C 57.902563 75.771412 57.910197 75.751966 57.929688 75.728516 C 62.205962 71.385072 62.303502 66.792142 61.792969 64.412109 A 0.50005 0.50005 0 0 0 61.542969 64.078125 C 59.872384 63.171308 57.442366 61.980992 55.255859 60.501953 C 53.069353 59.022914 51.157553 57.252714 50.470703 55.306641 A 0.50005 0.50005 0 0 0 50.015625 54.972656 z M 50 56.363281 C 50.966975 58.310748 52.692216 59.975105 54.695312 61.330078 C 56.878709 62.807012 59.205484 63.94869 60.837891 64.826172 C 61.074009 66.054576 61.049594 67.90412 60.341797 70.007812 C 60.312757 69.361392 60.200283 68.75896 59.964844 68.238281 C 59.154283 66.445711 57.470236 65.469449 56.701172 65.046875 C 53.491524 63.284068 50.242188 61.494141 50.242188 61.494141 A 0.50005 0.50005 0 0 0 49.757812 61.494141 C 49.757812 61.494141 46.508476 63.284068 43.298828 65.046875 C 42.529764 65.469449 40.845717 66.445711 40.035156 68.238281 C 39.799717 68.75896 39.687246 69.361392 39.658203 70.007812 C 38.950406 67.90412 38.925991 66.054576 39.162109 64.826172 C 40.794516 63.94869 43.121292 62.807012 45.304688 61.330078 C 47.307785 59.975105 49.033025 58.310748 50 56.363281 z M 20.744141 59.472656 A 0.50005 0.50005 0 0 0 20.4375 59.582031 C 19.891857 60.018546 18.998445 60.444315 18.080078 60.710938 C 17.161711 60.977559 16.207621 61.084734 15.582031 60.980469 A 0.50005 0.50005 0 0 0 15.292969 61.927734 C 16.38218 62.42283 17.816857 64.538011 18.990234 66.884766 C 20.163612 69.231521 21.156223 71.774549 21.794922 73.179688 A 0.50005 0.50005 0 0 0 22.091797 73.447266 C 22.091797 73.447266 24.361171 74.209209 26.4375 74.46875 A 0.50005 0.50005 0 0 0 26.777344 73.556641 C 25.851467 72.939389 24.555213 70.967175 23.472656 68.925781 C 22.457913 67.012265 21.635715 65.161672 21.105469 64.074219 L 22.353516 62.826172 A 0.50005 0.50005 0 0 0 22.429688 62.214844 C 22.429688 62.214844 21.693499 60.983749 21.214844 59.787109 A 0.50005 0.50005 0 0 0 20.744141 59.472656 z M 79.238281 59.472656 A 0.50005 0.50005 0 0 0 78.785156 59.787109 C 78.306501 60.983749 77.570312 62.214844 77.570312 62.214844 A 0.50005 0.50005 0 0 0 77.646484 62.826172 L 78.894531 64.074219 C 78.364285 65.161672 77.542087 67.012265 76.527344 68.925781 C 75.444787 70.967175 74.148533 72.939389 73.222656 73.556641 A 0.50005 0.50005 0 0 0 73.5625 74.46875 C 75.638829 74.209209 77.908203 73.447266 77.908203 73.447266 A 0.50005 0.50005 0 0 0 78.205078 73.179688 C 78.843777 71.77455 79.836388 69.231521 81.009766 66.884766 C 82.183143 64.538011 83.61782 62.42283 84.707031 61.927734 A 0.50005 0.50005 0 0 0 84.417969 60.980469 C 83.792379 61.084734 82.838289 60.977569 81.919922 60.710938 C 81.001555 60.444314 80.108143 60.018546 79.5625 59.582031 A 0.50005 0.50005 0 0 0 79.238281 59.472656 z M 20.519531 60.626953 C 20.910861 61.475317 21.261713 62.150129 21.392578 62.373047 L 20.146484 63.619141 A 0.50005 0.50005 0 0 0 20.052734 64.197266 C 20.537827 65.167451 21.484901 67.310925 22.589844 69.394531 C 23.352092 70.831913 24.181457 72.092438 25.044922 73.119141 C 23.983426 72.861578 22.729498 72.58477 22.607422 72.544922 C 21.991008 71.165436 21.04453 68.757028 19.884766 66.4375 C 18.921693 64.511356 17.833957 62.888871 16.605469 61.847656 C 17.190189 61.808366 17.750005 61.848222 18.357422 61.671875 C 19.171843 61.43543 19.87561 61.039284 20.519531 60.626953 z M 79.480469 60.626953 C 80.12439 61.039284 80.828157 61.43543 81.642578 61.671875 C 82.249995 61.848222 82.809811 61.808363 83.394531 61.847656 C 82.166043 62.888871 81.078307 64.511356 80.115234 66.4375 C 78.95547 68.757028 78.008992 71.165436 77.392578 72.544922 C 77.270502 72.584772 76.016574 72.861578 74.955078 73.119141 C 75.818543 72.092438 76.647908 70.831913 77.410156 69.394531 C 78.515099 67.310925 79.462173 65.167451 79.947266 64.197266 A 0.50005 0.50005 0 0 0 79.853516 63.619141 L 78.607422 62.373047 C 78.738287 62.150129 79.089139 61.475317 79.480469 60.626953 z"
  />
</svg>